<svg width="744" height="392" viewBox="0 0 744 392" fill="none" xmlns="http://www.w3.org/2000/svg">
<path d="M691.873 8.86319L372.001 320.671L52.129 8.86319C46.4139 3.28096 38.7419 0.155792 30.753 0.155792C22.764 0.155792 15.092 3.28096 9.37697 8.86319C6.60975 11.5745 4.41135 14.8107 2.91055 18.3823C1.40975 21.9539 0.636719 25.7891 0.636719 29.6632C0.636719 33.5373 1.40975 37.3724 2.91055 40.944C4.41135 44.5156 6.60975 47.7519 9.37697 50.4632L349.665 382.239C355.641 388.064 363.656 391.324 372.001 391.324C380.346 391.324 388.361 388.064 394.337 382.239L734.625 50.5272C737.412 47.8138 739.627 44.5697 741.139 40.9862C742.652 37.4028 743.431 33.5527 743.431 29.6632C743.431 25.7737 742.652 21.9235 741.139 18.3401C739.627 14.7567 737.412 11.5125 734.625 8.79916C728.91 3.21693 721.238 0.0917969 713.249 0.0917969C705.26 0.0917969 697.588 3.21693 691.873 8.79916V8.86319Z" fill="black"/>
</svg>
